<?xml version="1.0" standalone="no"?>
<!DOCTYPE svg PUBLIC "-//W3C//DTD SVG 20010904//EN"
 "http://www.w3.org/TR/2001/REC-SVG-20010904/DTD/svg10.dtd">
<svg version="1.0" xmlns="http://www.w3.org/2000/svg"
 width="700.000000pt" height="700.000000pt" viewBox="0 0 700.000000 700.000000"
 preserveAspectRatio="xMidYMid meet">
<metadata>
Created by potrace 1.11, written by Peter Selinger 2001-2013
</metadata>
<g transform="translate(0.000000,700.000000) scale(0.100000,-0.100000)"
fill="#000000" stroke="none">
<path d="M3250 6944 c-25 -2 -103 -11 -173 -20 -1526 -186 -2750 -1370 -2986
-2889 -149 -961 115 -1949 719 -2695 439 -541 1023 -938 1675 -1138 1464 -449
3043 117 3890 1393 300 451 477 930 552 1490 24 183 24 647 0 829 -78 577
-262 1068 -574 1526 -563 825 -1413 1346 -2423 1485 -110 15 -575 28 -680 19z
m-820 -1746 c161 -32 473 -32 744 0 265 31 400 37 541 22 441 -45 735 -259
815 -591 25 -106 27 -295 4 -407 -57 -279 -245 -485 -554 -607 -52 -21 -96
-38 -97 -39 -1 -1 177 -265 395 -586 l397 -585 188 -3 187 -2 0 -145 0 -145
-285 0 -285 0 -472 708 -473 707 -252 3 -253 2 0 -565 0 -565 250 0 251 0 -3
-142 -3 -143 -622 -3 -623 -2 0 145 0 145 215 0 215 0 0 1249 0 1248 -37 6
c-21 3 -118 16 -215 28 l-178 22 0 139 c0 128 1 139 18 134 9 -3 69 -15 132
-28z"/>
<path d="M3345 4924 c-11 -1 -86 -8 -167 -15 l-148 -12 0 -542 0 -543 66 -8
c106 -11 458 2 554 20 193 38 321 97 420 196 103 103 142 202 143 365 1 151
-37 263 -120 355 -123 137 -286 191 -571 189 -87 -1 -166 -3 -177 -5z"/>
</g>
</svg>
